<?xml version="1.0" standalone="no"?><!DOCTYPE svg PUBLIC "-//W3C//DTD SVG 1.1//EN" "http://www.w3.org/Graphics/SVG/1.1/DTD/svg11.dtd"><svg t="1521099576562" class="icon" style="" viewBox="0 0 1024 1024" version="1.1" xmlns="http://www.w3.org/2000/svg" p-id="1039" xmlns:xlink="http://www.w3.org/1999/xlink" width="200" height="200"><defs><style type="text/css"></style></defs><path d="M912.310222 874.534873l-801.248753 0c-8.477069 0-15.349593-6.872524-15.349593-15.349593s6.872524-15.349593 15.349593-15.349593l801.248753 0c8.477069 0 15.349593 6.872524 15.349593 15.349593S920.78729 874.534873 912.310222 874.534873z" p-id="1040"></path><path d="M152.361083 860.972996c-4.093225 0-8.098445-1.639337-11.042497-4.685719-4.168949-4.315282-5.440919-10.663874-3.257184-16.253172l73.833589-188.899254c0.777713-1.988284 1.961678-3.793396 3.476171-5.299703l495.742734-492.675886c6.002714-5.967922 15.706727-5.947456 21.686928 0.047072l114.705462 114.988918c5.951549 5.966898 5.981225 15.614629 0.064468 21.61632L355.786169 788.710182c-1.639337 1.662873-3.63683 2.929726-5.840008 3.704368L157.449985 860.102163C155.786089 860.687494 154.064888 860.972996 152.361083 860.972996zM239.309364 665.327084l-60.471256 154.712641 157.576875-55.407937L815.023478 279.099602l-93.136214-93.365434L239.309364 665.327084z" p-id="1041"></path><path d="M344.855212 793.284361c-3.983731 0-7.962346-1.540076-10.969842-4.612041L215.223806 667.460678c-5.930059-6.057973-5.826705-15.776312 0.231267-21.706371 6.056949-5.932106 15.775288-5.827729 21.706371 0.231267l118.661563 121.211643c5.930059 6.057973 5.826705 15.776312-0.231267 21.706371C352.605733 791.827173 348.728426 793.284361 344.855212 793.284361z" p-id="1042"></path></svg>