<?xml version="1.0" standalone="no"?><!DOCTYPE svg PUBLIC "-//W3C//DTD SVG 1.1//EN" "http://www.w3.org/Graphics/SVG/1.1/DTD/svg11.dtd"><svg t="1521103996650" class="icon" style="" viewBox="0 0 1024 1024" version="1.1" xmlns="http://www.w3.org/2000/svg" p-id="7191" xmlns:xlink="http://www.w3.org/1999/xlink" width="200" height="200"><defs><style type="text/css"></style></defs><path d="M954.730465 488.325149c0 24.84657 0 47.559486 0 71.597622-290.729426 0-580.07735 0-870.857942 0 0-23.951152 0-46.658952 0-71.597622C373.379064 488.325149 663.315405 488.325149 954.730465 488.325149z" p-id="7192" fill="#8a8a8a"></path><path d="M826.394044 218.149403c0 23.787418 0 46.500335 0 71.224104-246.419028 0-492.270104 0-740.254834 0 0-22.56965 0-45.886334 0-71.224104C331.775386 218.149403 577.616229 218.149403 826.394044 218.149403z" p-id="7193" fill="#8a8a8a"></path><path d="M505.19994 748.748513c0 23.874402 0 46.618018 0 71.525988-139.250287 0-278.423825 0-419.403548 0 0-23.158067 0-46.541268 0-71.525988C225.041563 748.748513 363.595983 748.748513 505.19994 748.748513z" p-id="7194" fill="#8a8a8a"></path></svg>